<?xml version="1.0" encoding="iso-8859-1"?>
<!-- Generator: Adobe Illustrator 17.1.0, SVG Export Plug-In . SVG Version: 6.00 Build 0)  -->
<!DOCTYPE svg PUBLIC "-//W3C//DTD SVG 1.1//EN" "http://www.w3.org/Graphics/SVG/1.1/DTD/svg11.dtd">
<svg version="1.1" id="Capa_1" xmlns="http://www.w3.org/2000/svg" xmlns:xlink="http://www.w3.org/1999/xlink" x="0px" y="0px"
	 viewBox="0 0 202.92 202.92" style="enable-background:new 0 0 202.92 202.92;" xml:space="preserve">
<path d="M165.929,202.92H36.991c-8.531,0-15.472-6.94-15.472-15.472V27.035c0-8.53,6.94-15.471,15.472-15.471h24.024l7.927-10.36
	C69,1.127,69.061,1.053,69.126,0.982C69.2,0.9,69.278,0.823,69.361,0.75l0,0c0.001-0.001,0.003-0.002,0.004-0.004
	c0.509-0.447,1.171-0.725,1.896-0.744c0.002,0,0.004,0,0.006,0c0.028-0.001,0.047-0.003,0.087-0.001h60.233
	c0.026-0.001,0.058,0,0.086,0.001c0.004,0,0.006,0,0.006,0c0.721,0.02,1.377,0.293,1.884,0.733c0.002,0.002,0.003,0.002,0.005,0.004
	c0.087,0.076,0.171,0.157,0.249,0.244c0.001,0,0.003,0.003,0.003,0.003c0.063,0.069,0.123,0.143,0.18,0.218l7.927,10.36h24.002
	c8.531,0,15.472,6.94,15.472,15.471v160.413C181.4,195.979,174.46,202.92,165.929,202.92z M130.682,196.92h35.247
	c5.223,0,9.472-4.249,9.472-9.472V27.035c0-5.222-4.249-9.471-9.472-9.471h-23.496l-14.432,34.11
	c-0.41,0.969-1.297,1.652-2.339,1.801c-1.041,0.151-2.085-0.26-2.749-1.074l-2.446-3.001l-4.403,8.939L130.682,196.92z
	 M78.271,196.92h46.377L110.289,60.792H92.631L78.271,196.92z M36.991,17.564c-5.223,0-9.472,4.249-9.472,9.471v160.413
	c0,5.223,4.249,9.472,9.472,9.472h35.247L86.856,58.34l-4.395-8.921l-2.432,2.982c-0.664,0.814-1.707,1.226-2.749,1.074
	c-1.042-0.148-1.929-0.832-2.339-1.801L60.51,17.564H36.991z M91.797,54.792h19.326l5.166-10.488l-4.725-5.794H91.355l-4.724,5.795
	L91.797,54.792z M113.837,31.773l10.579,12.977l12.586-29.748l-5.377-7.027l-6.231,8.338c-0.012,0.016-0.023,0.032-0.035,0.048
	L113.837,31.773z M65.94,15.002L78.527,44.75l2.209-2.71c0.009-0.012,0.019-0.023,0.027-0.034l8.342-10.232L71.317,7.974
	L65.94,15.002z M95.839,32.51h11.265c-0.081-0.362-0.094-0.736-0.039-1.103c0-0.001,0-0.001,0-0.001
	c0-0.001,0.001-0.002,0.001-0.003c0-0.005,0.001-0.009,0.002-0.013V31.39c0.073-0.472,0.26-0.93,0.561-1.332l9.339-12.493h-30.99
	l9.338,12.493c0.398,0.534,0.597,1.166,0.597,1.798C95.911,32.075,95.887,32.295,95.839,32.51z M81.491,11.564h39.96l4.158-5.563
	H77.333L81.491,11.564z"/>
<g>
</g>
<g>
</g>
<g>
</g>
<g>
</g>
<g>
</g>
<g>
</g>
<g>
</g>
<g>
</g>
<g>
</g>
<g>
</g>
<g>
</g>
<g>
</g>
<g>
</g>
<g>
</g>
<g>
</g>
</svg>
